<svg id="svg" xmlns="http://www.w3.org/2000/svg" xmlns:xlink="http://www.w3.org/1999/xlink" width="400" height="400" viewBox="0, 0, 400,400"><g id="svgg"><path id="path0" d="M319.968 130.752 C 316.909 131.275,316.582 131.976,315.015 141.375 C 314.103 146.841,313.259 159.008,313.252 166.785 L 313.250 169.444 312.365 169.610 C 308.876 170.265,307.146 172.155,306.303 176.236 C 305.133 181.890,307.744 186.801,312.235 187.397 C 313.104 187.512,313.588 187.705,313.677 187.973 C 315.841 194.434,321.277 196.014,325.783 191.491 L 327.692 189.575 331.345 189.773 C 343.904 190.454,362.519 194.326,366.260 197.036 C 369.598 199.454,367.264 205.529,357.680 219.375 C 349.823 230.725,345.437 235.803,335.440 245.125 C 332.190 248.156,331.171 250.516,332.499 251.941 C 336.130 255.838,351.879 245.171,364.473 230.286 C 387.442 203.137,392.676 186.263,380.125 179.827 C 372.014 175.667,341.928 169.251,330.530 169.250 L 328.186 169.250 328.357 167.938 C 328.670 165.550,331.213 155.521,332.747 150.625 C 333.005 149.800,333.856 147.110,334.637 144.648 C 336.233 139.617,336.321 138.717,335.375 137.102 C 333.212 133.412,324.766 129.931,319.968 130.752 M87.671 146.848 C 83.737 148.310,78.425 164.782,74.761 186.875 C 69.228 220.244,71.229 246.584,80.325 260.112 C 93.596 279.849,127.801 278.507,148.556 257.435 C 171.568 234.073,174.924 201.831,156.449 181.617 C 145.389 169.516,128.052 174.263,110.009 194.332 C 96.851 208.968,95.555 217.398,105.078 226.413 C 109.963 231.037,114.017 231.377,115.148 227.257 C 117.942 217.079,132.940 198.614,141.702 194.565 C 147.776 191.759,153.663 195.288,155.667 202.937 C 159.806 218.736,151.184 236.032,133.739 246.921 C 119.871 255.578,99.790 254.354,93.055 244.441 C 88.499 237.736,86.725 221.200,89.151 208.055 C 91.241 196.732,97.586 176.502,102.032 166.983 C 103.362 164.136,103.500 163.685,103.500 162.172 C 103.500 155.015,93.013 144.863,87.671 146.848 M283.778 158.997 C 278.994 160.286,274.004 163.762,272.436 166.896 C 271.510 168.747,271.436 169.866,271.987 173.692 C 272.258 175.580,272.765 179.206,273.112 181.750 C 273.942 187.828,275.355 198.219,276.139 204.000 C 276.483 206.544,276.927 209.750,277.124 211.125 C 277.321 212.500,277.711 215.369,277.989 217.500 C 278.268 219.631,278.840 223.963,279.261 227.125 C 280.041 232.995,280.438 236.058,282.238 250.125 C 283.480 259.830,283.675 260.529,285.530 261.897 C 286.605 262.690,288.393 262.728,289.348 261.976 C 291.149 260.560,291.488 258.494,291.495 248.907 C 291.503 236.613,291.983 207.116,292.254 202.250 C 292.491 197.978,292.845 193.193,293.890 180.125 C 294.435 173.322,294.642 164.170,294.281 162.851 C 293.275 159.169,288.984 157.594,283.778 158.997 M39.000 164.173 C 34.747 164.885,33.884 166.719,35.653 171.291 C 40.931 184.939,43.727 204.882,42.155 217.677 C 41.086 226.386,41.981 228.643,45.750 226.736 C 49.384 224.898,53.797 214.586,56.496 201.625 C 61.002 179.987,60.459 170.637,54.493 167.141 C 50.497 164.799,43.392 163.438,39.000 164.173 M217.375 167.902 C 207.493 168.865,200.491 171.339,197.019 175.094 C 196.187 175.995,195.948 175.925,195.412 174.622 C 193.465 169.889,189.505 172.650,185.903 181.250 C 185.395 182.463,184.968 183.057,184.220 183.591 C 182.031 185.153,177.666 191.008,175.658 195.077 C 172.798 200.870,173.668 206.278,178.005 209.666 L 180.481 211.600 180.333 216.363 C 179.764 234.561,187.943 248.085,202.926 253.717 C 219.795 260.060,237.627 252.229,252.670 231.872 C 272.393 205.181,264.995 176.976,236.250 169.277 C 232.053 168.153,222.184 167.434,217.375 167.902 M228.361 188.984 C 243.324 192.039,251.035 202.058,249.537 216.500 C 248.070 230.637,239.232 237.904,222.875 238.424 C 200.168 239.145,187.083 222.206,194.252 201.368 C 196.464 194.939,204.087 190.246,215.137 188.511 C 217.629 188.120,225.508 188.401,228.361 188.984 " stroke="none" fill="#000000" fill-rule="evenodd"></path></g></svg>