<?xml version="1.0" encoding="utf-8"?>
<svg xmlns="http://www.w3.org/2000/svg" xmlns:xlink="http://www.w3.org/1999/xlink" style="margin: auto; background: none; display: block; shape-rendering: auto;" width="141px" height="141px" viewBox="0 0 100 100" preserveAspectRatio="xMidYMid">
<g transform="rotate(0 50 50)">
  <rect x="42.5" y="19" rx="7.5" ry="3" width="15" height="6" fill="#ff5a5f">
    <animate attributeName="opacity" values="1;0" keyTimes="0;1" dur="1.25s" begin="-1.225s" repeatCount="indefinite"></animate>
  </rect>
</g><g transform="rotate(7.2 50 50)">
  <rect x="42.5" y="19" rx="7.5" ry="3" width="15" height="6" fill="#ff5a5f">
    <animate attributeName="opacity" values="1;0" keyTimes="0;1" dur="1.25s" begin="-1.2s" repeatCount="indefinite"></animate>
  </rect>
</g><g transform="rotate(14.4 50 50)">
  <rect x="42.5" y="19" rx="7.5" ry="3" width="15" height="6" fill="#ff5a5f">
    <animate attributeName="opacity" values="1;0" keyTimes="0;1" dur="1.25s" begin="-1.175s" repeatCount="indefinite"></animate>
  </rect>
</g><g transform="rotate(21.6 50 50)">
  <rect x="42.5" y="19" rx="7.5" ry="3" width="15" height="6" fill="#ff5a5f">
    <animate attributeName="opacity" values="1;0" keyTimes="0;1" dur="1.25s" begin="-1.15s" repeatCount="indefinite"></animate>
  </rect>
</g><g transform="rotate(28.8 50 50)">
  <rect x="42.5" y="19" rx="7.5" ry="3" width="15" height="6" fill="#ff5a5f">
    <animate attributeName="opacity" values="1;0" keyTimes="0;1" dur="1.25s" begin="-1.125s" repeatCount="indefinite"></animate>
  </rect>
</g><g transform="rotate(36 50 50)">
  <rect x="42.5" y="19" rx="7.5" ry="3" width="15" height="6" fill="#ff5a5f">
    <animate attributeName="opacity" values="1;0" keyTimes="0;1" dur="1.25s" begin="-1.1s" repeatCount="indefinite"></animate>
  </rect>
</g><g transform="rotate(43.2 50 50)">
  <rect x="42.5" y="19" rx="7.5" ry="3" width="15" height="6" fill="#ff5a5f">
    <animate attributeName="opacity" values="1;0" keyTimes="0;1" dur="1.25s" begin="-1.075s" repeatCount="indefinite"></animate>
  </rect>
</g><g transform="rotate(50.4 50 50)">
  <rect x="42.5" y="19" rx="7.5" ry="3" width="15" height="6" fill="#ff5a5f">
    <animate attributeName="opacity" values="1;0" keyTimes="0;1" dur="1.25s" begin="-1.05s" repeatCount="indefinite"></animate>
  </rect>
</g><g transform="rotate(57.6 50 50)">
  <rect x="42.5" y="19" rx="7.5" ry="3" width="15" height="6" fill="#ff5a5f">
    <animate attributeName="opacity" values="1;0" keyTimes="0;1" dur="1.25s" begin="-1.025s" repeatCount="indefinite"></animate>
  </rect>
</g><g transform="rotate(64.8 50 50)">
  <rect x="42.5" y="19" rx="7.5" ry="3" width="15" height="6" fill="#ff5a5f">
    <animate attributeName="opacity" values="1;0" keyTimes="0;1" dur="1.25s" begin="-1s" repeatCount="indefinite"></animate>
  </rect>
</g><g transform="rotate(72 50 50)">
  <rect x="42.5" y="19" rx="7.5" ry="3" width="15" height="6" fill="#ff5a5f">
    <animate attributeName="opacity" values="1;0" keyTimes="0;1" dur="1.25s" begin="-0.975s" repeatCount="indefinite"></animate>
  </rect>
</g><g transform="rotate(79.2 50 50)">
  <rect x="42.5" y="19" rx="7.5" ry="3" width="15" height="6" fill="#ff5a5f">
    <animate attributeName="opacity" values="1;0" keyTimes="0;1" dur="1.25s" begin="-0.95s" repeatCount="indefinite"></animate>
  </rect>
</g><g transform="rotate(86.4 50 50)">
  <rect x="42.5" y="19" rx="7.5" ry="3" width="15" height="6" fill="#ff5a5f">
    <animate attributeName="opacity" values="1;0" keyTimes="0;1" dur="1.25s" begin="-0.925s" repeatCount="indefinite"></animate>
  </rect>
</g><g transform="rotate(93.6 50 50)">
  <rect x="42.5" y="19" rx="7.5" ry="3" width="15" height="6" fill="#ff5a5f">
    <animate attributeName="opacity" values="1;0" keyTimes="0;1" dur="1.25s" begin="-0.9s" repeatCount="indefinite"></animate>
  </rect>
</g><g transform="rotate(100.8 50 50)">
  <rect x="42.5" y="19" rx="7.5" ry="3" width="15" height="6" fill="#ff5a5f">
    <animate attributeName="opacity" values="1;0" keyTimes="0;1" dur="1.25s" begin="-0.875s" repeatCount="indefinite"></animate>
  </rect>
</g><g transform="rotate(108 50 50)">
  <rect x="42.5" y="19" rx="7.5" ry="3" width="15" height="6" fill="#ff5a5f">
    <animate attributeName="opacity" values="1;0" keyTimes="0;1" dur="1.25s" begin="-0.85s" repeatCount="indefinite"></animate>
  </rect>
</g><g transform="rotate(115.2 50 50)">
  <rect x="42.5" y="19" rx="7.5" ry="3" width="15" height="6" fill="#ff5a5f">
    <animate attributeName="opacity" values="1;0" keyTimes="0;1" dur="1.25s" begin="-0.825s" repeatCount="indefinite"></animate>
  </rect>
</g><g transform="rotate(122.4 50 50)">
  <rect x="42.5" y="19" rx="7.5" ry="3" width="15" height="6" fill="#ff5a5f">
    <animate attributeName="opacity" values="1;0" keyTimes="0;1" dur="1.25s" begin="-0.8s" repeatCount="indefinite"></animate>
  </rect>
</g><g transform="rotate(129.6 50 50)">
  <rect x="42.5" y="19" rx="7.5" ry="3" width="15" height="6" fill="#ff5a5f">
    <animate attributeName="opacity" values="1;0" keyTimes="0;1" dur="1.25s" begin="-0.775s" repeatCount="indefinite"></animate>
  </rect>
</g><g transform="rotate(136.8 50 50)">
  <rect x="42.5" y="19" rx="7.5" ry="3" width="15" height="6" fill="#ff5a5f">
    <animate attributeName="opacity" values="1;0" keyTimes="0;1" dur="1.25s" begin="-0.75s" repeatCount="indefinite"></animate>
  </rect>
</g><g transform="rotate(144 50 50)">
  <rect x="42.5" y="19" rx="7.5" ry="3" width="15" height="6" fill="#ff5a5f">
    <animate attributeName="opacity" values="1;0" keyTimes="0;1" dur="1.25s" begin="-0.725s" repeatCount="indefinite"></animate>
  </rect>
</g><g transform="rotate(151.2 50 50)">
  <rect x="42.5" y="19" rx="7.5" ry="3" width="15" height="6" fill="#ff5a5f">
    <animate attributeName="opacity" values="1;0" keyTimes="0;1" dur="1.25s" begin="-0.7s" repeatCount="indefinite"></animate>
  </rect>
</g><g transform="rotate(158.4 50 50)">
  <rect x="42.5" y="19" rx="7.5" ry="3" width="15" height="6" fill="#ff5a5f">
    <animate attributeName="opacity" values="1;0" keyTimes="0;1" dur="1.25s" begin="-0.675s" repeatCount="indefinite"></animate>
  </rect>
</g><g transform="rotate(165.6 50 50)">
  <rect x="42.5" y="19" rx="7.5" ry="3" width="15" height="6" fill="#ff5a5f">
    <animate attributeName="opacity" values="1;0" keyTimes="0;1" dur="1.25s" begin="-0.65s" repeatCount="indefinite"></animate>
  </rect>
</g><g transform="rotate(172.8 50 50)">
  <rect x="42.5" y="19" rx="7.5" ry="3" width="15" height="6" fill="#ff5a5f">
    <animate attributeName="opacity" values="1;0" keyTimes="0;1" dur="1.25s" begin="-0.625s" repeatCount="indefinite"></animate>
  </rect>
</g><g transform="rotate(180 50 50)">
  <rect x="42.5" y="19" rx="7.5" ry="3" width="15" height="6" fill="#ff5a5f">
    <animate attributeName="opacity" values="1;0" keyTimes="0;1" dur="1.25s" begin="-0.6s" repeatCount="indefinite"></animate>
  </rect>
</g><g transform="rotate(187.2 50 50)">
  <rect x="42.5" y="19" rx="7.5" ry="3" width="15" height="6" fill="#ff5a5f">
    <animate attributeName="opacity" values="1;0" keyTimes="0;1" dur="1.25s" begin="-0.575s" repeatCount="indefinite"></animate>
  </rect>
</g><g transform="rotate(194.4 50 50)">
  <rect x="42.5" y="19" rx="7.5" ry="3" width="15" height="6" fill="#ff5a5f">
    <animate attributeName="opacity" values="1;0" keyTimes="0;1" dur="1.25s" begin="-0.55s" repeatCount="indefinite"></animate>
  </rect>
</g><g transform="rotate(201.6 50 50)">
  <rect x="42.5" y="19" rx="7.5" ry="3" width="15" height="6" fill="#ff5a5f">
    <animate attributeName="opacity" values="1;0" keyTimes="0;1" dur="1.25s" begin="-0.525s" repeatCount="indefinite"></animate>
  </rect>
</g><g transform="rotate(208.8 50 50)">
  <rect x="42.5" y="19" rx="7.5" ry="3" width="15" height="6" fill="#ff5a5f">
    <animate attributeName="opacity" values="1;0" keyTimes="0;1" dur="1.25s" begin="-0.5s" repeatCount="indefinite"></animate>
  </rect>
</g><g transform="rotate(216 50 50)">
  <rect x="42.5" y="19" rx="7.5" ry="3" width="15" height="6" fill="#ff5a5f">
    <animate attributeName="opacity" values="1;0" keyTimes="0;1" dur="1.25s" begin="-0.475s" repeatCount="indefinite"></animate>
  </rect>
</g><g transform="rotate(223.2 50 50)">
  <rect x="42.5" y="19" rx="7.5" ry="3" width="15" height="6" fill="#ff5a5f">
    <animate attributeName="opacity" values="1;0" keyTimes="0;1" dur="1.25s" begin="-0.45s" repeatCount="indefinite"></animate>
  </rect>
</g><g transform="rotate(230.4 50 50)">
  <rect x="42.5" y="19" rx="7.5" ry="3" width="15" height="6" fill="#ff5a5f">
    <animate attributeName="opacity" values="1;0" keyTimes="0;1" dur="1.25s" begin="-0.425s" repeatCount="indefinite"></animate>
  </rect>
</g><g transform="rotate(237.6 50 50)">
  <rect x="42.5" y="19" rx="7.5" ry="3" width="15" height="6" fill="#ff5a5f">
    <animate attributeName="opacity" values="1;0" keyTimes="0;1" dur="1.25s" begin="-0.4s" repeatCount="indefinite"></animate>
  </rect>
</g><g transform="rotate(244.8 50 50)">
  <rect x="42.5" y="19" rx="7.5" ry="3" width="15" height="6" fill="#ff5a5f">
    <animate attributeName="opacity" values="1;0" keyTimes="0;1" dur="1.25s" begin="-0.375s" repeatCount="indefinite"></animate>
  </rect>
</g><g transform="rotate(252 50 50)">
  <rect x="42.5" y="19" rx="7.5" ry="3" width="15" height="6" fill="#ff5a5f">
    <animate attributeName="opacity" values="1;0" keyTimes="0;1" dur="1.25s" begin="-0.35s" repeatCount="indefinite"></animate>
  </rect>
</g><g transform="rotate(259.2 50 50)">
  <rect x="42.5" y="19" rx="7.5" ry="3" width="15" height="6" fill="#ff5a5f">
    <animate attributeName="opacity" values="1;0" keyTimes="0;1" dur="1.25s" begin="-0.325s" repeatCount="indefinite"></animate>
  </rect>
</g><g transform="rotate(266.4 50 50)">
  <rect x="42.5" y="19" rx="7.5" ry="3" width="15" height="6" fill="#ff5a5f">
    <animate attributeName="opacity" values="1;0" keyTimes="0;1" dur="1.25s" begin="-0.3s" repeatCount="indefinite"></animate>
  </rect>
</g><g transform="rotate(273.6 50 50)">
  <rect x="42.5" y="19" rx="7.5" ry="3" width="15" height="6" fill="#ff5a5f">
    <animate attributeName="opacity" values="1;0" keyTimes="0;1" dur="1.25s" begin="-0.275s" repeatCount="indefinite"></animate>
  </rect>
</g><g transform="rotate(280.8 50 50)">
  <rect x="42.5" y="19" rx="7.5" ry="3" width="15" height="6" fill="#ff5a5f">
    <animate attributeName="opacity" values="1;0" keyTimes="0;1" dur="1.25s" begin="-0.25s" repeatCount="indefinite"></animate>
  </rect>
</g><g transform="rotate(288 50 50)">
  <rect x="42.5" y="19" rx="7.5" ry="3" width="15" height="6" fill="#ff5a5f">
    <animate attributeName="opacity" values="1;0" keyTimes="0;1" dur="1.25s" begin="-0.225s" repeatCount="indefinite"></animate>
  </rect>
</g><g transform="rotate(295.2 50 50)">
  <rect x="42.5" y="19" rx="7.5" ry="3" width="15" height="6" fill="#ff5a5f">
    <animate attributeName="opacity" values="1;0" keyTimes="0;1" dur="1.25s" begin="-0.2s" repeatCount="indefinite"></animate>
  </rect>
</g><g transform="rotate(302.4 50 50)">
  <rect x="42.5" y="19" rx="7.5" ry="3" width="15" height="6" fill="#ff5a5f">
    <animate attributeName="opacity" values="1;0" keyTimes="0;1" dur="1.25s" begin="-0.175s" repeatCount="indefinite"></animate>
  </rect>
</g><g transform="rotate(309.6 50 50)">
  <rect x="42.5" y="19" rx="7.5" ry="3" width="15" height="6" fill="#ff5a5f">
    <animate attributeName="opacity" values="1;0" keyTimes="0;1" dur="1.25s" begin="-0.15s" repeatCount="indefinite"></animate>
  </rect>
</g><g transform="rotate(316.8 50 50)">
  <rect x="42.5" y="19" rx="7.5" ry="3" width="15" height="6" fill="#ff5a5f">
    <animate attributeName="opacity" values="1;0" keyTimes="0;1" dur="1.25s" begin="-0.125s" repeatCount="indefinite"></animate>
  </rect>
</g><g transform="rotate(324 50 50)">
  <rect x="42.5" y="19" rx="7.5" ry="3" width="15" height="6" fill="#ff5a5f">
    <animate attributeName="opacity" values="1;0" keyTimes="0;1" dur="1.25s" begin="-0.1s" repeatCount="indefinite"></animate>
  </rect>
</g><g transform="rotate(331.2 50 50)">
  <rect x="42.5" y="19" rx="7.5" ry="3" width="15" height="6" fill="#ff5a5f">
    <animate attributeName="opacity" values="1;0" keyTimes="0;1" dur="1.25s" begin="-0.075s" repeatCount="indefinite"></animate>
  </rect>
</g><g transform="rotate(338.4 50 50)">
  <rect x="42.5" y="19" rx="7.5" ry="3" width="15" height="6" fill="#ff5a5f">
    <animate attributeName="opacity" values="1;0" keyTimes="0;1" dur="1.25s" begin="-0.05s" repeatCount="indefinite"></animate>
  </rect>
</g><g transform="rotate(345.6 50 50)">
  <rect x="42.5" y="19" rx="7.5" ry="3" width="15" height="6" fill="#ff5a5f">
    <animate attributeName="opacity" values="1;0" keyTimes="0;1" dur="1.25s" begin="-0.025s" repeatCount="indefinite"></animate>
  </rect>
</g><g transform="rotate(352.8 50 50)">
  <rect x="42.5" y="19" rx="7.5" ry="3" width="15" height="6" fill="#ff5a5f">
    <animate attributeName="opacity" values="1;0" keyTimes="0;1" dur="1.25s" begin="0s" repeatCount="indefinite"></animate>
  </rect>
</g>
<!-- [ldio] generated by https://loading.io/ --></svg>